# xmcd
#
# Track frame offsets:
#	150
#	18610
#	37165
#	53458
#	56918
#	72549
#	88168
#	105430
#	122441
#	137756
#	152344
#	167656
#	181539
#	204875
#
# Disc length: 3249 seconds
#
# Revision: 0
# Processed by: cddbd v1.5.2PL0 Copyright (c) Steve Scherf et al.
# Submitted via: audiograbber 1.83.01
#
DISCID=b30caf0e
DTITLE=Belle Perez - Gipsy
DYEAR=2008
DGENRE=Latin
TTITLE0=Espana Mia
TTITLE1=Devorame
TTITLE2=venga me gusta
TTITLE3=intro
TTITLE4=Dime que tu quieres
TTITLE5=Dame una razon
TTITLE6=Tu
TTITLE7=Amame
TTITLE8=Porque yo canto
TTITLE9=Timbale
TTITLE10=Djolei Djolei
TTITLE11=Rebelde amor
TTITLE12=Tres gotas de agua bendita
TTITLE13=Gipsy Kings Medley
EXTD=
EXTT0=
EXTT1=
EXTT2=
EXTT3=
EXTT4=
EXTT5=
EXTT6=
EXTT7=
EXTT8=
EXTT9=
EXTT10=
EXTT11=
EXTT12=
EXTT13=
PLAYORDER=
